<svg width="332" height="141" viewBox="0 0 332 141" xmlns="http://www.w3.org/2000/svg" xmlns:xlink="http://www.w3.org/1999/xlink"><defs><path id="a" d="M44.706 109.9L86.023 84.22l-41.33-72.962z"/></defs><g fill="none" fill-rule="evenodd"><path d="M129.056 107.336c-2.025 2.023-4.69 3.035-7.407 3.035-2.56 0-4.797-1.277-4.797-3.78 0-3.195 3.41-4.206 6.66-4.206 1.813 0 3.997.32 5.543.638v4.314zm9.272 2.396c-.532.16-1.12.32-1.705.32-1.012 0-1.864-.426-1.864-1.864v-9.16c0-7.72-4.584-11.182-11.833-11.182-4.103 0-7.78 1.01-9.806 1.704v5.218c2.294-1.01 5.438-1.97 9.222-1.97 4.37 0 6.714 2.237 6.714 5.432v.905c-2.025-.426-4.477-.745-6.66-.745-5.33 0-11.406 2.023-11.406 8.574 0 5.272 4.317 7.828 8.953 7.828 3.998 0 7.14-1.278 9.646-3.302.904 2.077 2.77 2.982 5.115 2.982 1.278 0 2.558-.214 3.623-.64v-4.1zM154.476 114.79c3.25 0 6.02-.584 8.472-1.756v-5.272c-2.025 1.172-4.742 1.97-7.46 1.97-4.583 0-9.006-2.61-9.006-8.413 0-6.02 4.583-8.414 9.113-8.414 2.61 0 5.222.798 7.088 2.128v-5.218c-2.24-1.33-5.01-1.97-7.887-1.97-6.822 0-14.122 4.153-14.122 13.685 0 9.107 6.98 13.26 13.802 13.26M184.585 107.336c-2.026 2.023-4.69 3.035-7.408 3.035-2.558 0-4.795-1.277-4.795-3.78 0-3.195 3.41-4.206 6.66-4.206 1.812 0 3.997.32 5.543.638v4.314zm-6.662-8.946c-5.33 0-11.405 2.023-11.405 8.574 0 5.272 4.318 7.828 8.954 7.828 3.997 0 7.14-1.278 9.645-3.302.906 2.077 2.772 2.982 5.117 2.982 1.277 0 2.558-.214 3.623-.64v-4.1c-.533.16-1.12.32-1.705.32-1.012 0-1.865-.426-1.865-1.864v-9.16c0-7.72-4.583-11.182-11.83-11.182-4.105 0-7.782 1.01-9.807 1.704v5.218c2.292-1.01 5.437-1.97 9.22-1.97 4.37 0 6.715 2.237 6.715 5.432v.905c-2.026-.426-4.477-.745-6.662-.745zM218.05 98.177v6.23c-1.225 2.823-4.156 5.38-8.153 5.38-4.583 0-7.94-3.462-7.94-8.468 0-5.007 3.357-8.47 7.94-8.47 3.997 0 6.928 2.558 8.154 5.327m-21.847 3.142c0 7.347 4.954 13.47 12.682 13.47 4.795 0 7.834-2.235 9.805-4.738v4.046h5.116V76.823h-5.702V91.84c-1.758-2.024-4.742-3.994-9.22-3.994-7.727 0-12.68 6.124-12.68 13.473M242.565 92.585c5.595 0 6.98 4.366 6.66 6.604h-14.174c.213-4.314 3.678-6.605 7.515-6.605m1.28 22.206c3.57 0 6.82-.638 9.164-1.756v-4.9c-2.185 1.066-5.01 1.812-8.1 1.812-4.69 0-9.166-1.917-9.806-6.498h19.237c1.653-7.4-1.863-15.602-12.042-15.602-5.915 0-12.95 4.207-12.95 13.472 0 9 6.662 13.473 14.496 13.473M294.683 98.283V114.1h5.702V98.123c0-5.272-2.93-10.278-9.698-10.278-3.73 0-6.715 1.863-8.954 4.1-1.492-2.502-4.156-4.1-7.993-4.1-4.157 0-7.14 2.344-8.527 3.887V88.54h-5.062v25.56h5.703V96.845c1.332-1.705 3.677-3.94 6.767-3.94 3.09 0 5.063 2.076 5.063 5.377V114.1h5.702V98.123c0-.587-.053-1.172-.106-1.758 1.33-1.598 3.516-3.46 6.34-3.46 3.09 0 5.063 2.076 5.063 5.377M331.507 88.538h-5.968l-7.622 19.277-8.632-19.277h-6.076l12.15 25.774-.533 1.278c-1.492 3.993-3.57 5.964-6.34 5.964-.853 0-1.76-.106-2.613-.373v4.847c1.12.267 2.24.426 3.357.426 3.892 0 7.515-2.236 10.287-8.892l11.99-29.022zM118.532 52.41c1.438-2.076 3.89-4.26 7.14-4.26 3.412 0 5.968 1.97 5.968 6.125v15.07h5.703V53.53c0-6.072-4.104-10.438-10.55-10.438-3.465 0-6.396 1.597-8.26 3.514V32.068h-5.704v37.277h5.702V52.41zM147.31 61.57c0 5.965 3.836 8.413 8.792 8.413 2.504 0 4.956-.426 6.875-1.117v-4.9c-1.6.64-3.304 1.01-5.17 1.01-3.304 0-4.85-1.116-4.85-4.472V48.79h9.273v-5.007h-9.272v-9.106l-5.65 1.386v7.72h-4.582v5.006h4.583v12.78zM175.23 52.09c1.333-1.703 3.678-3.94 6.768-3.94s5.062 2.077 5.062 5.378v15.816h5.703V53.37c0-.586-.053-1.173-.106-1.758 1.332-1.598 3.516-3.462 6.34-3.462 3.09 0 5.063 2.077 5.063 5.378v15.816h5.703V53.37c0-5.273-2.93-10.28-9.7-10.28-3.73 0-6.715 1.864-8.952 4.102-1.49-2.503-4.156-4.1-7.992-4.1-4.157 0-7.14 2.343-8.528 3.886v-3.194h-5.062v25.56h5.703V52.09zM218.104 69.344h5.703V32.068h-5.703" fill="#FFF"/><mask id="b" fill="#fff"><use xlink:href="#a"/></mask><path d="M28.235 108.303l1.963 3.29 58.54-35.452-1.964-3.29-58.54 35.453zm0-9.036l1.963 3.292 58.54-35.455-1.964-3.292-58.54 35.454zm0-9.037l1.963 3.292 58.54-35.453-1.964-3.293-58.54 35.453zm0-9.035l1.963 3.29 58.54-35.452-1.964-3.293-58.54 35.455zm0-9.037l1.963 3.293 58.54-35.454-1.964-3.29-58.54 35.452zm0-9.037l1.963 3.294 58.54-35.453-1.964-3.292-58.54 35.453zM88.737 4.093L86.774.8l-58.54 35.454 1.964 3.292 58.54-35.454zM28.235 45.17l1.963 3.292 58.54-35.453-1.964-3.294-58.54 35.453zm58.54-26.538l1.962 3.292-58.54 35.454-1.962-3.293 58.54-35.453z" fill="#FFF" mask="url(#b)"/><path d="M40.487 32.132l-5.485-3.386v4.48l5.563 3.434-.078-4.528zm-2.782 16.185L32.22 44.93v4.48l5.564 3.434-.08-4.527zm8.09 13.968L41.07 59.38v4.48l4.803 2.953-.078-4.528zM19.09 54.953v4.48l9.047 5.697-.078-4.527-8.97-5.65zm15.074 18.305v4.482l11.44 6.88-.08-4.528-11.36-6.834zm-15.144-.365v4.48l5.56 3.433-.077-4.528-5.483-3.385zM34.527 91.75l.078 4.527-5.563-3.432v-4.48l5.485 3.384z" fill="#FFF"/><path d="M84.868 110.774l-39.464 23.342L5.94 110.774v-22.33l39.147 23.383v5.186l-.1.054-17.208-10.01-.04 4.09 17.218 10.18 17.16-9.597-.012-1.397.012-.007v-8.732l22.75-13.95v23.13zm-54.17-76.63L5.94 75.926V36.723l24.76-2.58zm54.17 2.58V74.29l-24.63-40.136 24.63 2.567zM45.235 107.44L5.94 83.97v-.49l39.32-66.356.016.012 39.592 64.52v1.482L45.235 107.44zM90.82 83.994l-.013-.022V31.407l-34.46-3.592-4.324-7.045-2.265-6.93 7.32-5.286H48.03L45.236 0 42.44 8.554h-9.047l7.318 5.285-2.48 7.593-3.783 6.383L0 31.406v82.725l45.404 26.856 45.403-26.855V84.003l.014-.01z" fill="#FFF"/></g></svg>