<svg width="91" height="141" viewBox="0 0 91 141" xmlns="http://www.w3.org/2000/svg"><g fill="none" fill-rule="evenodd"><mask id="a" fill="#fff"><path d="M44.706 109.9L86.023 84.22l-41.33-72.962z"/></mask><path d="M28.235 108.303l1.963 3.29 58.54-35.452-1.964-3.29-58.54 35.453zm0-9.036l1.963 3.292 58.54-35.455-1.964-3.292-58.54 35.454zm0-9.037l1.963 3.292 58.54-35.453-1.964-3.293-58.54 35.453zm0-9.035l1.963 3.29 58.54-35.452-1.964-3.293-58.54 35.455zm0-9.037l1.963 3.293 58.54-35.454-1.964-3.29-58.54 35.452zm0-9.037l1.963 3.294 58.54-35.453-1.964-3.292-58.54 35.453zM88.737 4.093L86.774.8l-58.54 35.454 1.964 3.292 58.54-35.454zM28.235 45.17l1.963 3.292 58.54-35.453-1.964-3.294-58.54 35.453zm58.54-26.538l1.962 3.292-58.54 35.454-1.962-3.293 58.54-35.453z" mask="url(#a)" fill="#FFF"/><path d="M40.487 32.132l-5.485-3.386v4.48l5.563 3.434-.078-4.528zm-2.782 16.185L32.22 44.93v4.48l5.564 3.434-.08-4.527zm8.09 13.968L41.07 59.38v4.48l4.803 2.953-.078-4.528zM19.09 54.953v4.48l9.047 5.697-.078-4.527-8.97-5.65zm15.074 18.305v4.482l11.44 6.88-.08-4.528-11.36-6.834zm-15.144-.365v4.48l5.56 3.433-.077-4.528-5.483-3.385zM34.527 91.75l.078 4.527-5.563-3.432v-4.48l5.485 3.384z" fill="#FFF"/><path d="M84.868 110.774l-39.464 23.342L5.94 110.774v-22.33l39.147 23.383v5.186l-.1.054-17.208-10.01-.04 4.09 17.218 10.18 17.16-9.597-.012-1.397.012-.007v-8.732l22.75-13.95v23.13zm-54.17-76.63L5.94 75.926V36.723l24.76-2.58zm54.17 2.58V74.29l-24.63-40.136 24.63 2.567zM45.235 107.44L5.94 83.97v-.49l39.32-66.356.016.012 39.592 64.52v1.482L45.235 107.44zM90.82 83.994l-.013-.022V31.407l-34.46-3.592-4.324-7.045-2.265-6.93 7.32-5.286H48.03L45.236 0 42.44 8.554h-9.047l7.318 5.285-2.48 7.593-3.783 6.383L0 31.406v82.725l45.404 26.856 45.403-26.855V84.003l.014-.01z" fill="#FFF"/></g></svg>